<svg width="95" height="24" viewBox="0 0 95 24" fill="none" xmlns="http://www.w3.org/2000/svg">
<path fill-rule="evenodd" clip-rule="evenodd" d="M22.4767 4.13991C23.1041 3.40176 23.6577 2.6267 24.1375 1.77783L21.3326 0.375341C20.9266 1.03968 20.4468 1.6671 19.8563 2.22072C19.1919 2.88505 18.3061 3.32794 17.3834 3.47557C15.7595 3.69702 14.5785 3.18031 12.9176 2.11C11.183 1.00277 9.18998 -0.252087 6.3481 0.0800807C4.65035 0.301526 3.06333 1.18731 1.66084 2.73742C1.03341 3.47557 0.479798 4.25063 0 5.09951L2.80497 6.50199C3.21096 5.83766 3.69075 5.21023 4.28127 4.65662C4.94561 3.99228 5.83139 3.54939 6.75408 3.40176C6.97552 3.36485 7.23388 3.36485 7.45532 3.36485C8.74709 3.36485 9.7805 3.88156 11.2199 4.76734C12.8438 5.83766 14.9106 7.12942 17.7894 6.76034C19.561 6.5389 21.148 5.65312 22.4767 4.13991ZM24.1375 10.1927C23.6577 11.0416 23.1041 11.8167 22.4767 12.5548C21.148 14.068 19.561 14.9169 17.7894 15.1753C14.9106 15.5443 12.8438 14.2526 11.2199 13.1822C9.7805 12.2965 8.74709 11.7798 7.45532 11.7798C7.23388 11.7798 6.97552 11.7798 6.75408 11.8167C5.83139 11.9643 4.94561 12.4072 4.28127 13.0715C3.69075 13.6251 3.21096 14.2526 2.80497 14.9169L0 13.5144C0.479798 12.6655 1.03341 11.8905 1.66084 11.1523C3.06333 9.60221 4.65035 8.71643 6.3481 8.49499C9.09479 8.13358 11.0629 9.36472 12.8069 10.4557L12.9176 10.5249C14.5785 11.5952 15.7595 12.1119 17.3834 11.8905C18.3061 11.7429 19.1919 11.3 19.8563 10.6356C20.4468 10.082 20.9266 9.45458 21.3326 8.79025L24.1375 10.1927ZM24.1375 18.5707C23.6577 19.4196 23.1041 20.1947 22.4767 20.9328C21.148 22.446 19.561 23.3318 17.7894 23.5533C14.9106 23.9223 12.8438 22.6306 11.2199 21.5603C9.7805 20.6745 8.74709 20.1578 7.45532 20.1578C7.23388 20.1578 6.97552 20.1578 6.75408 20.1947C5.83139 20.3423 4.94561 20.7852 4.28127 21.4495C3.69075 22.0031 3.21096 22.6306 2.80497 23.2949L0 21.8924C0.479798 21.0435 1.03341 20.2685 1.66084 19.5303C3.06333 17.9802 4.65035 17.0944 6.3481 16.873C9.1649 16.5072 11.1477 17.773 12.8717 18.8736L12.9176 18.9029C14.5785 19.9732 15.7595 20.4899 17.3834 20.2685C18.3061 20.1209 19.1919 19.678 19.8563 19.0136C20.4468 18.46 20.9266 17.8326 21.3326 17.1683L24.1375 18.5707ZM40.0077 0.41223C39.9708 0.41223 39.9339 0.449138 39.9339 0.486045V8.12591C39.9339 8.23663 39.8232 8.34735 39.6756 8.34735C39.6018 8.34735 39.5648 8.31044 39.5279 8.27354C38.31 7.16631 36.723 6.53888 35.0621 6.57579C30.5225 6.57579 27.4592 10.0082 27.4592 15.1014C27.4592 20.2685 30.4487 23.6271 35.0621 23.6271C36.723 23.6271 38.6052 22.7413 39.4172 21.9293C39.491 21.8555 39.5648 21.8186 39.6756 21.8186C39.7863 21.8186 39.897 21.8924 39.897 22.0031L40.2292 23.1842C40.2341 23.1941 40.2384 23.2033 40.2424 23.2119C40.2681 23.2672 40.2809 23.2949 40.3768 23.2949H43.1818C43.2187 23.2949 43.2556 23.258 43.2556 23.2211V0.486045C43.2556 0.449138 43.2187 0.41223 43.1818 0.41223H40.0077ZM35.5418 20.6376C32.6262 20.6376 30.8546 18.5338 30.8546 15.1014C30.8546 11.669 32.6631 9.6022 35.5418 9.6022C38.3099 9.6022 39.9338 11.5952 39.9338 15.1014C39.9338 18.5338 38.273 20.6376 35.5418 20.6376ZM50.5633 6.57579H47.3154C47.2416 6.57579 47.2047 6.6127 47.2416 6.64961V23.2211C47.2416 23.258 47.2785 23.2949 47.3154 23.2949H50.5633C50.6002 23.2949 50.6371 23.258 50.6371 23.2211V6.64961C50.6371 6.6127 50.6002 6.57579 50.5633 6.57579ZM47.2786 0.965843H50.6372V4.36134H47.2786V0.965843ZM60.7867 6.57579C55.9887 6.57579 52.8516 9.93438 52.8516 15.1014C52.8516 20.1947 56.0256 23.6271 60.7867 23.6271C64.5513 23.6271 67.3932 21.7079 68.1313 18.6077C68.1101 18.5864 68.1011 18.5774 68.0902 18.5736C68.0859 18.5721 68.0813 18.5713 68.0755 18.571C68.0705 18.5707 68.0647 18.5707 68.0575 18.5707H64.662C64.5882 18.5707 64.5144 18.6077 64.5144 18.6815C63.85 19.9732 62.5952 20.6376 60.7867 20.6376C58.277 20.6376 56.3947 18.9029 56.3947 16.5777C56.3947 16.4301 56.5054 16.3563 56.6161 16.3194H56.6531H68.5004C68.5113 16.3194 68.5191 16.3194 68.5254 16.3165C68.5405 16.3096 68.5482 16.2865 68.5742 16.2087L68.5742 16.2087C68.648 15.8396 68.6849 15.4705 68.6849 15.1014C68.7218 9.93438 65.5847 6.57579 60.7867 6.57579ZM65.068 13.662H56.4316C56.2471 12.4441 57.5019 9.6391 60.7867 9.6391C63.7024 9.6391 65.2156 11.7428 65.068 13.662ZM88.5043 6.57579C86.7696 6.57579 85.1088 7.27704 83.8908 8.53189C83.817 8.60571 83.7432 8.64262 83.6694 8.64262C83.5956 8.64262 83.5218 8.60571 83.448 8.53189C82.1931 7.12941 80.9382 6.57579 79.0191 6.57579C77.5428 6.6127 76.1403 7.24013 75.1438 8.31045C75.0699 8.38426 74.9961 8.42117 74.8854 8.42117C74.7747 8.42117 74.664 8.34736 74.664 8.23663L74.3318 7.01868C74.2949 6.90796 74.258 6.87105 74.1842 6.87105H71.4161C71.3792 6.87105 71.3423 6.90796 71.3423 6.94487V23.1842C71.3423 23.2211 71.3792 23.258 71.4161 23.258H71.453H74.6271C74.664 23.258 74.7009 23.2211 74.7009 23.2211V14.1787C74.7009 11.2261 75.9188 9.60221 78.0964 9.60221C80.3477 9.60221 81.4919 11.1523 81.4919 14.1787V23.2211C81.4919 23.2949 81.5288 23.2949 81.5657 23.2949H84.7766C84.8135 23.2949 84.8504 23.258 84.8504 23.2211V14.1787C84.8504 12.2226 85.1826 9.60221 88.209 9.60221C90.4604 9.60221 91.6414 11.1523 91.6414 14.1787V23.2211C91.6414 23.258 91.6783 23.2949 91.7152 23.2949H91.7522H94.9262C94.9631 23.2949 95 23.2949 95 23.2211V23.1842V14.1049C94.9631 9.15932 92.7487 6.57579 88.5043 6.57579Z" fill="#42318C"/>
</svg>
